<?xml version="1.0" encoding="utf-8"?>
<!-- Generator: Adobe Illustrator 24.0.1, SVG Export Plug-In . SVG Version: 6.00 Build 0)  -->
<svg version="1.1" id="Layer_1" xmlns="http://www.w3.org/2000/svg" xmlns:xlink="http://www.w3.org/1999/xlink" x="0px" y="0px"
	 viewBox="0 0 235.62 224.36" style="enable-background:new 0 0 235.62 224.36;" xml:space="preserve">
<style type="text/css">
	.st0{fill:#FFFFFF;}
</style>
<g>
	<path class="st0" d="M135.8,134.31c-0.14-10.13-0.09-20.36-4.86-29.73c-3.62-7.11-9.88-9.91-17.47-8.18
		c-8.07,1.84-11.9,7.27-11.56,16.72c0.35,9.64,1.52,19.3,1.14,28.91c-0.96,24.4-9.43,45.76-27.56,62.75c-0.73,0.68-1.74,1.32-2,2.17
		c-0.3,0.95-0.29,2.49,0.29,3.09c0.55,0.57,2.18,0.62,3.04,0.23c1.16-0.52,2.06-1.65,3.02-2.57c18.2-17.51,27.13-39.25,28.22-64.16
		c0.46-10.43-0.78-20.93-1.06-31.4c-0.17-6.39,2.09-9.39,7.47-10.72c5.47-1.36,9.83,0.42,12.1,6.1c1.82,4.56,3.13,9.54,3.53,14.42
		c2.69,32.81-5.88,62.61-24.75,89.51c-0.96,1.36-2.03,2.69-2.68,4.19c-0.31,0.7-0.05,2.26,0.48,2.58c0.81,0.5,2.37,0.71,3.07,0.24
		c1.18-0.8,2-2.18,2.86-3.4C126.1,190.83,135.57,164.11,135.8,134.31z M174.73,131.5c-0.59-7.95-0.84-14.95-1.67-21.89
		c-3.87-32.6-21.67-50.33-53.25-53.29c-34.44-3.23-62.43,26.71-57.34,60.94c1.14,7.66,0.63,15.56,1.13,23.34
		c0.09,1.46,1.37,2.84,2.09,4.26c0.97-1.14,2.71-2.24,2.76-3.41c0.27-5.96,0.23-11.95,0.07-17.92c-0.21-7.79-1.91-15.79-0.7-23.33
		c3.47-21.58,21.14-36.5,44.2-38.72c23.14-2.23,43,9.07,50.91,29.65c2.54,6.61,4.11,13.72,5.17,20.75
		c2.45,16.29,0.83,32.57-0.97,48.82c-0.18,1.64,1.24,3.45,1.92,5.19c1-1.48,2.72-2.89,2.89-4.46
		C173.09,151.16,173.9,140.87,174.73,131.5z M119.11,30.36c-15.23-0.03-28.27,3.13-40.34,9.63C56.7,51.88,41.71,69.51,36.29,94.43
		c-0.34,1.58,1.08,3.55,1.67,5.34c1.06-1.44,2.73-2.73,3.1-4.33c7.12-30.83,32.69-54.01,65.59-59.25
		c29.77-4.74,61.15,10.41,76.86,37.06c5.75,9.75,9.14,20.26,10.78,31.43c0.22,1.48,2.04,2.73,3.12,4.09
		c0.61-1.53,1.29-3.03,1.78-4.6c0.18-0.59-0.06-1.32-0.15-1.98C193.42,61.19,159.19,30.97,119.11,30.36z M27.01,111.24
		c-0.2,0-0.4-0.01-0.61-0.01c0.3-4.81,0.2-9.69,0.95-14.42c7.18-45.12,51.47-79.02,97.21-74.65c2.49,0.24,6.07,2.37,6.82-1.99
		c0.11-0.63-4.32-2.84-6.72-2.97c-36.66-1.98-65.98,11.86-87.18,41.86c-13.66,19.33-18.48,40.98-14.92,64.52
		c1.46,9.68,1.42,19.31-4.99,27.74c-0.66,0.86-0.13,2.63-0.16,3.97c1.41-0.37,3.36-0.29,4.15-1.2c4.29-4.95,6.56-10.91,6.52-17.41
		C28.03,128.2,27.4,119.72,27.01,111.24z M213.98,139.25c0.69-16.88-0.63-33.62-4.96-49.99c-8.65-32.71-28.24-55.67-60.49-67.08
		c-1.53-0.54-3.62,0.53-5.46,0.85c1.2,1.28,2.17,3.23,3.65,3.75c32.42,11.56,50.78,35.12,58.4,67.95
		c4.95,21.33,4.57,42.97,3.88,64.64c-0.05,1.55,1.34,3.15,2.06,4.73c0.97-1.46,2.71-2.88,2.78-4.37
		C214.15,152.91,213.98,146.08,213.98,139.25z M114.92,69.73c-25.01,0.33-41.79,19.34-39.36,44.25c1.28,13.09,2.32,26.21-0.94,39.22
		c-3.85,15.35-12.47,27.76-23.38,38.86c-0.99,1.01-0.96,3.02-1.4,4.57c1.56-0.27,3.67,0.02,4.61-0.89
		c12.64-12.29,22.14-26.44,25.82-44.07c2.74-13.11,1.45-26.18,0.31-39.27c-1.81-20.84,12.59-37.11,33.45-37.64
		c1.83-0.05,3.73,0.3,5.47-0.08c1.35-0.3,2.52-1.45,3.77-2.22c-1.12-0.91-2.12-2.23-3.4-2.61
		C118.35,69.38,116.58,69.73,114.92,69.73z M162.04,131.44c-0.37-14.12-1.7-27.3-7.91-39.49c-3.47-6.8-8.17-12.58-14.84-16.43
		c-1.24-0.72-3.18-0.22-4.8-0.28c0.66,1.46,0.98,3.24,2.03,4.31c2.19,2.24,5.04,3.86,7.13,6.17c8.47,9.32,11.59,20.87,12.48,32.98
		c2.42,33.03-4.93,64.04-19.91,93.43c-0.78,1.53-0.29,3.7-0.39,5.58c1.6-1.06,3.35-1.95,4.73-3.24c0.92-0.86,1.34-2.27,1.93-3.46
		C155.09,185.72,161.04,158.82,162.04,131.44z M112.85,3.8c-29.5,0.69-57.82,13.53-79.84,39.67c-1.04,1.24-0.98,3.41-1.44,5.15
		c1.76-0.67,4.09-0.83,5.2-2.07c32.88-37,78.05-47.33,123.73-28.27c1.48,0.62,3.5-0.06,5.27-0.14c-1.13-1.49-1.94-3.66-3.44-4.37
		C148.13,7.08,133.09,3.9,112.85,3.8z M188.02,128.97c-0.45-5-0.86-13.66-2.1-22.2c-1.77-12.24-5.09-24.1-12.01-34.57
		c-0.92-1.39-3.19-1.89-4.84-2.81c0.16,1.76-0.07,3.66,0.53,5.25c3.07,8.03,7.53,15.72,9.36,24c7.35,33.35,3.85,66.1-7.35,98.16
		c-0.33,0.94-1.07,1.86-1.04,2.77c0.04,1.14,0.38,2.84,1.14,3.23c0.74,0.38,2.49-0.29,3.22-1.05c0.86-0.89,1.14-2.36,1.61-3.61
		C184.46,177.02,187.41,155.04,188.02,128.97z M55.57,134.44c-0.38-4.31-0.68-8.64-1.14-12.94C51.89,98,57.49,77.56,76.45,61.98
		c1.07-0.88,1.22-2.89,1.8-4.38c-1.74,0.24-4.18-0.17-5.1,0.83c-5.5,5.95-11.5,11.7-15.73,18.5c-9.14,14.68-9.79,31.13-7.74,47.86
		c1.57,12.81,1.43,25.42-6.95,36.29c-3.55,4.6-7.69,8.75-11.3,13.31c-0.77,0.97-0.43,2.83-0.6,4.28c1.34-0.23,3.13,0.01,3.94-0.76
		C47.1,166.04,57.15,153.02,55.57,134.44z M121.43,135.84c0-1.33,0.1-2.67-0.02-4c-0.58-6.63-1.11-13.27-1.95-19.87
		c-0.14-1.09-1.74-2-2.67-2.99c-0.75,1.26-1.56,2.5-2.21,3.81c-0.18,0.36,0.18,0.96,0.25,1.45c5.22,35.73-1.98,68.2-25.4,96.38
		c-0.53,0.64-1.21,1.3-1.37,2.05c-0.18,0.87-0.18,2.33,0.32,2.65c0.79,0.52,2.22,0.69,3.09,0.33c0.98-0.41,1.69-1.54,2.42-2.43
		C112.24,190.7,121.65,164.97,121.43,135.84z M144.78,124.7c-0.39,0.1-0.78,0.19-1.18,0.29c-0.14,2.82-0.47,5.66-0.3,8.46
		c0.06,0.99,1.4,1.89,2.15,2.83c0.9-0.77,2.51-1.48,2.59-2.33c1.33-14.29,1.23-28.48-8-40.55c-7.18-9.39-17.38-11.92-28.6-9.95
		c-11.27,1.98-18.87,8.7-22.17,19.74c-0.47,1.56,0.76,3.63,1.2,5.46c1.19-1.31,2.94-2.42,3.47-3.95
		c3.47-9.92,11.07-16.01,21.36-16.73c10.67-0.74,19.93,3.96,23.76,13.76C141.92,109.02,142.94,117.02,144.78,124.7z M226.24,107.7
		c0.3-0.07,0.6-0.14,0.9-0.21c-2.03-9.38-3.37-18.98-6.22-28.11c-6.88-22.08-20.01-39.97-38.57-53.78c-1.16-0.86-3.14-0.63-4.74-0.9
		c0.58,1.62,1.08,3.28,1.79,4.85c0.24,0.53,1.01,0.83,1.53,1.24c19.17,15.19,32.01,34.51,37.42,58.43
		c1.56,6.92,1.79,14.14,2.92,21.18c0.28,1.76,1.73,3.34,2.64,5c0.78-1.74,1.65-3.44,2.29-5.23
		C226.46,109.44,226.24,108.53,226.24,107.7z M94.93,133.71c-0.38-3.2-0.92-8.82-1.83-14.38c-0.15-0.93-1.97-1.59-3.01-2.37
		c-0.61,1.04-1.4,2.02-1.76,3.14c-0.22,0.7,0.26,1.61,0.36,2.43c3.61,30.23-3.14,56.8-27.29,77.21c-0.38,0.32-0.98,0.58-1.1,0.98
		c-0.32,1.14-0.45,2.34-0.65,3.52c1.21,0.14,2.54,0.66,3.59,0.31c1.18-0.39,2.14-1.52,3.14-2.39
		C86.46,184.74,94.54,162.12,94.93,133.71z M7.04,113.09c1.38,9,2.66,18.02,4.27,26.99c0.2,1.09,2.16,1.86,3.31,2.78
		c0.52-1.25,1.14-2.48,1.5-3.77c0.16-0.57-0.22-1.29-0.37-1.93c-5.52-24.38-3.01-47.85,7.98-70.36c0.51-1.04,1.29-2.08,1.36-3.17
		c0.07-0.96-0.42-2.45-1.14-2.83c-0.71-0.38-2.33,0.02-2.95,0.66c-1,1.03-1.57,2.51-2.22,3.85C11.48,80.35,7.78,96.22,7.04,113.09z
		 M162.53,60.43c-1.29-1.21-2.37-2.43-3.64-3.39c-16.5-12.35-35.06-16.28-55.12-12.63c-6.13,1.11-12.02,3.66-17.91,5.84
		c-0.92,0.34-1.26,2.27-1.87,3.46c1.28,0.36,2.56,1.03,3.83,1c1.07-0.02,2.12-0.87,3.19-1.31c12.8-5.29,25.98-6.52,39.55-3.74
		c9.61,1.96,18.26,5.9,26.02,11.93c1.11,0.86,2.9,0.98,4.41,1.12C161.34,62.74,161.83,61.5,162.53,60.43z M148.9,151.95
		c-1.15-1.55-1.96-2.62-2.76-3.69c-1.05,0.99-2.71,1.81-3.03,2.99c-1.08,4.01-1.59,8.16-2.49,12.23
		c-4.03,18.25-12.24,34.77-21.17,51c-0.7,1.27,0.13,3.37,0.25,5.09c1.38-0.87,3.4-1.42,4.03-2.66c5.47-10.83,11.39-21.52,15.78-32.8
		C143.53,173.79,145.81,162.79,148.9,151.95z M202.58,136.34c-0.49-0.07-0.98-0.14-1.47-0.21c0-3.83,0.3-7.69-0.13-11.47
		c-0.21-1.9-1.75-3.66-2.68-5.48c-0.75,1.76-2.05,3.49-2.16,5.29c-0.8,12.94-1,25.93-2.13,38.84c-0.65,7.41-2.82,14.68-4,22.06
		c-0.21,1.33,1.06,2.91,1.65,4.37c1.06-1.07,2.19-2.08,3.14-3.25c0.37-0.46,0.35-1.26,0.45-1.92
		C197.71,168.49,200.14,152.42,202.58,136.34z M42.35,136.03c-0.7-7.79-1.3-15.58-2.19-23.35c-0.15-1.31-1.52-2.49-2.32-3.73
		c-0.88,1.33-2.54,2.68-2.51,3.99c0.12,5.15,0.54,10.31,1.28,15.41c2.02,13.79-1.53,25.33-12.8,34.14
		c-1.13,0.88-1.39,2.87-2.06,4.35c1.72-0.13,3.93,0.38,5.07-0.5C36.76,158.75,42.75,149.02,42.35,136.03z M170.18,176.83
		c-1.24-1.8-1.77-3.32-2.79-3.79c-0.61-0.28-2.57,0.87-2.92,1.77c-4.19,11-8.24,22.06-12.16,33.16c-0.34,0.97,0.48,2.35,0.76,3.54
		c1.24-0.47,3.25-0.62,3.61-1.46C161.31,199.05,165.71,187.95,170.18,176.83z M64.11,157.8c0.53-0.56,1.05-1.12,1.58-1.69
		c-1.23-0.43-2.55-1.36-3.66-1.14c-1.15,0.22-2.48,1.34-3.06,2.42c-2.55,4.82-4.36,10.1-7.38,14.58c-3.22,4.78-7.6,8.76-11.23,13.3
		c-0.8,1-0.54,2.85-0.77,4.31c1.45-0.29,3.38-0.08,4.28-0.94c7.32-7.07,14.02-14.66,17.94-24.26C62.69,162.23,63.35,160,64.11,157.8
		z"/>
	<path d="M135.8,134.31c-0.22,29.81-9.69,56.53-26.71,80.74c-0.86,1.22-1.68,2.6-2.86,3.4c-0.7,0.47-2.26,0.26-3.07-0.24
		c-0.52-0.32-0.79-1.88-0.48-2.58c0.65-1.5,1.72-2.83,2.68-4.19c18.87-26.9,27.45-56.69,24.75-89.51c-0.4-4.89-1.71-9.86-3.53-14.42
		c-2.27-5.68-6.62-7.46-12.1-6.1c-5.39,1.34-7.64,4.34-7.47,10.72c0.28,10.47,1.52,20.97,1.06,31.4
		c-1.09,24.9-10.02,46.64-28.22,64.16c-0.96,0.92-1.86,2.04-3.02,2.57c-0.86,0.39-2.48,0.34-3.04-0.23c-0.58-0.6-0.6-2.14-0.29-3.09
		c0.27-0.85,1.28-1.48,2-2.17c18.13-16.99,26.6-38.35,27.56-62.75c0.38-9.61-0.8-19.27-1.14-28.91
		c-0.34-9.45,3.49-14.88,11.56-16.72c7.59-1.73,13.85,1.07,17.47,8.18C135.71,113.94,135.66,124.18,135.8,134.31z"/>
	<path d="M174.73,131.5c-0.84,9.37-1.64,19.66-2.79,29.91c-0.18,1.58-1.89,2.98-2.89,4.46c-0.68-1.73-2.1-3.55-1.92-5.19
		c1.8-16.26,3.42-32.54,0.97-48.82c-1.06-7.03-2.62-14.14-5.17-20.75c-7.91-20.58-27.77-31.88-50.91-29.65
		c-23.06,2.22-40.73,17.14-44.2,38.72c-1.21,7.54,0.49,15.54,0.7,23.33c0.16,5.97,0.2,11.96-0.07,17.92
		c-0.05,1.18-1.8,2.28-2.76,3.41c-0.73-1.42-2-2.8-2.09-4.26c-0.5-7.77,0.01-15.67-1.13-23.34c-5.09-34.23,22.9-64.17,57.34-60.94
		c31.58,2.96,49.38,20.69,53.25,53.29C173.89,116.54,174.14,123.54,174.73,131.5z"/>
	<path d="M119.11,30.36c40.07,0.61,74.31,30.84,79.92,71.83c0.09,0.66,0.34,1.39,0.15,1.98c-0.49,1.56-1.17,3.07-1.78,4.6
		c-1.08-1.36-2.9-2.61-3.12-4.09c-1.64-11.17-5.03-21.68-10.78-31.43c-15.71-26.64-47.08-41.8-76.86-37.06
		c-32.9,5.24-58.47,28.42-65.59,59.25c-0.37,1.6-2.04,2.89-3.1,4.33c-0.6-1.79-2.02-3.76-1.67-5.34
		c5.42-24.92,20.41-42.54,42.49-54.44C90.84,33.49,103.88,30.32,119.11,30.36z"/>
	<path d="M27.01,111.24c0.39,8.48,1.02,16.96,1.08,25.44c0.04,6.5-2.22,12.46-6.52,17.41c-0.79,0.91-2.74,0.82-4.15,1.2
		c0.02-1.35-0.5-3.11,0.16-3.97c6.42-8.44,6.46-18.07,4.99-27.74c-3.56-23.55,1.26-45.19,14.92-64.52
		c21.2-30,50.52-43.83,87.18-41.86c2.4,0.13,6.82,2.34,6.72,2.97c-0.75,4.37-4.32,2.23-6.82,1.99
		C78.83,17.78,34.54,51.69,27.35,96.8c-0.75,4.74-0.65,9.61-0.95,14.42C26.61,111.23,26.81,111.23,27.01,111.24z"/>
	<path d="M213.98,139.25c0,6.83,0.17,13.66-0.13,20.48c-0.07,1.5-1.81,2.92-2.78,4.37c-0.72-1.58-2.11-3.18-2.06-4.73
		c0.68-21.67,1.06-43.31-3.88-64.64c-7.62-32.83-25.98-56.38-58.4-67.95c-1.47-0.53-2.44-2.47-3.65-3.75
		c1.83-0.32,3.93-1.39,5.46-0.85c32.25,11.41,51.83,34.37,60.49,67.08C213.35,105.63,214.66,122.36,213.98,139.25z"/>
	<path d="M114.92,69.73c1.66,0,3.43-0.35,4.96,0.11c1.28,0.38,2.28,1.71,3.4,2.61c-1.25,0.77-2.42,1.93-3.77,2.22
		c-1.75,0.38-3.64,0.03-5.47,0.08c-20.86,0.54-35.26,16.8-33.45,37.64c1.14,13.09,2.43,26.16-0.31,39.27
		c-3.68,17.63-13.18,31.77-25.82,44.07c-0.94,0.91-3.05,0.62-4.61,0.89c0.44-1.55,0.41-3.56,1.4-4.57
		c10.91-11.1,19.53-23.51,23.38-38.86c3.26-13.01,2.22-26.13,0.94-39.22C73.12,89.07,89.9,70.06,114.92,69.73z"/>
	<path d="M162.04,131.44c-1,27.39-6.94,54.28-19.54,79.56c-0.59,1.19-1.01,2.6-1.93,3.46c-1.38,1.29-3.14,2.18-4.73,3.24
		c0.1-1.87-0.39-4.05,0.39-5.58c14.98-29.38,22.33-60.4,19.91-93.43c-0.89-12.11-4.01-23.66-12.48-32.98
		c-2.1-2.31-4.94-3.93-7.13-6.17c-1.05-1.07-1.38-2.85-2.03-4.31c1.62,0.06,3.56-0.44,4.8,0.28c6.67,3.85,11.37,9.63,14.84,16.43
		C160.34,104.13,161.67,117.32,162.04,131.44z"/>
	<path d="M112.85,3.8c20.23,0.1,35.27,3.28,49.48,9.97c1.5,0.71,2.31,2.88,3.44,4.37c-1.77,0.07-3.79,0.75-5.27,0.14
		C114.83-0.79,69.65,9.54,36.77,46.54c-1.11,1.25-3.44,1.41-5.2,2.07c0.45-1.74,0.39-3.91,1.44-5.15
		C55.04,17.33,83.36,4.49,112.85,3.8z"/>
	<path d="M188.02,128.97c-0.61,26.07-3.56,48.06-11.47,69.18c-0.47,1.24-0.75,2.72-1.61,3.61c-0.73,0.76-2.48,1.43-3.22,1.05
		c-0.76-0.39-1.1-2.09-1.14-3.23c-0.03-0.91,0.71-1.83,1.04-2.77c11.2-32.07,14.7-64.82,7.35-98.16c-1.82-8.28-6.29-15.97-9.36-24
		c-0.61-1.59-0.38-3.49-0.53-5.25c1.64,0.91,3.92,1.41,4.84,2.81c6.92,10.47,10.24,22.32,12.01,34.57
		C187.16,115.31,187.57,123.97,188.02,128.97z"/>
	<path d="M55.57,134.44c1.58,18.58-8.47,31.6-20.81,43.45c-0.81,0.78-2.6,0.53-3.94,0.76c0.17-1.45-0.17-3.31,0.6-4.28
		c3.61-4.56,7.75-8.7,11.3-13.31c8.38-10.87,8.52-23.47,6.95-36.29c-2.05-16.73-1.39-33.18,7.74-47.86
		c4.24-6.81,10.24-12.55,15.73-18.5c0.92-1,3.36-0.59,5.1-0.83c-0.58,1.48-0.72,3.49-1.8,4.38C57.49,77.56,51.89,98,54.43,121.5
		C54.9,125.81,55.2,130.13,55.57,134.44z"/>
	<path d="M121.43,135.84c0.22,29.13-9.19,54.86-27.54,77.39c-0.73,0.9-1.44,2.02-2.42,2.43c-0.87,0.37-2.3,0.19-3.09-0.33
		c-0.5-0.33-0.5-1.79-0.32-2.65c0.16-0.75,0.84-1.41,1.37-2.05c23.42-28.19,30.62-60.65,25.4-96.38c-0.07-0.49-0.42-1.09-0.25-1.45
		c0.65-1.31,1.46-2.55,2.21-3.81c0.93,0.99,2.53,1.9,2.67,2.99c0.84,6.6,1.37,13.24,1.95,19.87
		C121.53,133.17,121.43,134.51,121.43,135.84z"/>
	<path d="M144.78,124.7c-1.84-7.68-2.86-15.68-5.71-22.97c-3.83-9.8-13.09-14.5-23.76-13.76c-10.29,0.72-17.89,6.8-21.36,16.73
		c-0.54,1.53-2.29,2.64-3.47,3.95c-0.44-1.83-1.66-3.9-1.2-5.46c3.3-11.05,10.9-17.76,22.17-19.74c11.22-1.97,21.42,0.56,28.6,9.95
		c9.23,12.07,9.34,26.26,8,40.55c-0.08,0.85-1.69,1.56-2.59,2.33c-0.75-0.94-2.09-1.84-2.15-2.83c-0.18-2.8,0.16-5.64,0.3-8.46
		C143.99,124.9,144.39,124.8,144.78,124.7z"/>
	<path d="M226.24,107.7c0,0.83,0.22,1.74-0.04,2.48c-0.64,1.79-1.51,3.49-2.29,5.23c-0.91-1.66-2.35-3.24-2.64-5
		c-1.14-7.04-1.36-14.26-2.92-21.18c-5.4-23.92-18.24-43.25-37.42-58.43c-0.52-0.41-1.29-0.7-1.53-1.24
		c-0.71-1.56-1.21-3.22-1.79-4.85c1.6,0.27,3.58,0.04,4.74,0.9c18.56,13.81,31.69,31.7,38.57,53.78c2.85,9.13,4.19,18.72,6.22,28.11
		C226.84,107.56,226.54,107.63,226.24,107.7z"/>
	<path d="M94.93,133.71c-0.39,28.41-8.47,51.03-28.55,68.46c-1,0.87-1.96,2-3.14,2.39c-1.05,0.35-2.38-0.18-3.59-0.31
		c0.2-1.18,0.33-2.38,0.65-3.52c0.11-0.4,0.72-0.66,1.1-0.98c24.15-20.42,30.9-46.99,27.29-77.21c-0.1-0.82-0.58-1.73-0.36-2.43
		c0.35-1.12,1.15-2.1,1.76-3.14c1.05,0.78,2.86,1.44,3.01,2.37C94.01,124.89,94.55,130.51,94.93,133.71z"/>
	<path d="M7.04,113.09c0.74-16.87,4.44-32.74,11.75-47.79c0.65-1.34,1.22-2.82,2.22-3.85c0.62-0.64,2.25-1.04,2.95-0.66
		c0.71,0.38,1.2,1.87,1.14,2.83c-0.07,1.08-0.85,2.12-1.36,3.17c-10.99,22.51-13.5,45.98-7.98,70.36c0.15,0.65,0.52,1.37,0.37,1.93
		c-0.36,1.3-0.99,2.52-1.5,3.77c-1.15-0.92-3.11-1.69-3.31-2.78C9.69,131.12,8.41,122.1,7.04,113.09z"/>
	<path d="M162.53,60.43c-0.7,1.06-1.19,2.31-1.56,2.27c-1.51-0.14-3.3-0.25-4.41-1.12c-7.76-6.02-16.41-9.96-26.02-11.93
		c-13.58-2.78-26.75-1.54-39.55,3.74c-1.07,0.44-2.12,1.29-3.19,1.31c-1.27,0.03-2.55-0.64-3.83-1c0.61-1.19,0.95-3.12,1.87-3.46
		c5.89-2.18,11.78-4.73,17.91-5.84c20.07-3.64,38.62,0.28,55.12,12.63C160.16,58,161.24,59.22,162.53,60.43z"/>
	<path d="M148.9,151.95c-3.09,10.84-5.37,21.84-9.39,32.16c-4.39,11.28-10.31,21.96-15.78,32.8c-0.63,1.25-2.65,1.79-4.03,2.66
		c-0.12-1.72-0.94-3.82-0.25-5.09c8.94-16.23,17.14-32.74,21.17-51c0.9-4.06,1.41-8.22,2.49-12.23c0.32-1.18,1.98-2.01,3.03-2.99
		C146.94,149.33,147.75,150.4,148.9,151.95z"/>
	<path d="M202.58,136.34c-2.44,16.08-4.88,32.15-7.32,48.23c-0.1,0.66-0.08,1.46-0.45,1.92c-0.94,1.17-2.08,2.18-3.14,3.25
		c-0.59-1.46-1.87-3.04-1.65-4.37c1.18-7.38,3.35-14.65,4-22.06c1.13-12.91,1.33-25.9,2.13-38.84c0.11-1.8,1.41-3.53,2.16-5.29
		c0.94,1.82,2.47,3.58,2.68,5.48c0.43,3.78,0.13,7.64,0.13,11.47C201.6,136.2,202.09,136.27,202.58,136.34z"/>
	<path d="M42.35,136.03c0.4,12.99-5.59,22.72-15.52,30.31c-1.15,0.88-3.36,0.37-5.07,0.5c0.67-1.47,0.93-3.46,2.06-4.35
		c11.27-8.81,14.82-20.35,12.8-34.14c-0.75-5.1-1.16-10.26-1.28-15.41c-0.03-1.31,1.62-2.66,2.51-3.99
		c0.81,1.24,2.17,2.41,2.32,3.73C41.04,120.45,41.65,128.24,42.35,136.03z"/>
	<path d="M170.18,176.83c-4.48,11.12-8.87,22.22-13.5,33.21c-0.36,0.84-2.37,0.99-3.61,1.46c-0.28-1.19-1.1-2.57-0.76-3.54
		c3.92-11.1,7.97-22.16,12.16-33.16c0.34-0.9,2.31-2.05,2.92-1.77C168.41,173.51,168.95,175.03,170.18,176.83z"/>
	<path d="M64.11,157.8c-0.76,2.19-1.42,4.43-2.29,6.57c-3.92,9.59-10.62,17.19-17.94,24.26c-0.89,0.86-2.82,0.66-4.28,0.94
		c0.23-1.46-0.03-3.31,0.77-4.31c3.62-4.53,8.01-8.52,11.23-13.3c3.02-4.48,4.83-9.76,7.38-14.58c0.57-1.08,1.9-2.2,3.06-2.42
		c1.1-0.21,2.43,0.72,3.66,1.14C65.16,156.68,64.63,157.24,64.11,157.8z"/>
</g>
</svg>
