<svg id="Layer_1" data-name="Layer 1" xmlns="http://www.w3.org/2000/svg" viewBox="0 0 512 512">
    <defs>
        <style>.cls-1{fill:#fff;}</style>
    </defs>
    <title>NFC icon</title>
    <path
        d="M423,512c-13.59-7.86-25.59-17.48-33.27-31.48-3.49-6.37-6.17-13.18-9.3-20-5.14,9.28-12.58,16.05-23.32,17.66a44,44,0,0,1-16.26-.56q-70.92-16.76-141.69-34.09c-20.84-5.06-31-21.76-26-42.73q33.06-137.31,66.25-274.59c3.87-16,7.77-32,11.58-48,5.19-21.8,21.77-32.12,43.43-26.9Q364.29,68.16,434.16,85c16.87,4.08,26.48,13.81,28.29,29.43a39.2,39.2,0,0,1-1.2,13.3q-14.65,61.41-29.71,122.72c-.84,3.4-.22,5,2.94,6.55C448.34,263.9,462,271.28,475.89,278c11.29,5.43,17.93,14.35,22.11,25.77,5.22,14.25,7.17,29.05,7.83,44.06q2.75,62.91,5.33,125.83c.12,2.79.55,5.57.84,8.35v25c-1.66,1.3-3.15,3-5,3.82-5.91,2.44-10.72-1.8-11-9.27-2-50.11-4-100.22-6.17-150.32-.55-12.45-1.56-24.84-5.3-37-3.38-10.94-8.56-19.75-19.73-24.06a73.36,73.36,0,0,1-6.65-3.43l-31.43-15.93c-3,12.49-5.53,24.36-8.88,36-1.61,5.62-.67,9.47,3.22,13.76,7.33,8.08,14,16.73,21.13,25.34l-12.19,10c-1.76-2.08-3.26-3.82-4.72-5.59q-35.89-43.26-71.82-86.51a53.87,53.87,0,0,0-8.14-8c-6.28-4.89-11.91-4.64-18.2.28-5.57,4.36-7.18,10.57-4.16,17.4,1.95,4.4,4.19,8.7,6.55,12.9,18.54,32.92,37,65.86,55.79,98.67,5.37,9.39,8.2,19.18,7.71,30-.2,4.49-.32,9-.27,13.49.28,28.32,8.92,52.35,34.85,67.45,8,4.67,8.18,10.67.46,16.07Zm15.3-357.74L259.78,111.18c-21.3,88.3-42.42,175.85-63.62,263.75l178.15,43c3.08-7.61,2.84-14.64-1.19-21.69q-23.5-41.21-46.74-82.56c-6.34-11.31-12.78-22.62-18.26-34.36-5-10.75-4-21.62,4-30.88s18.15-14.1,30.65-11.31c9.76,2.18,16.63,8.81,22.78,16.21q16.94,20.37,33.78,40.8c1.11,1.34,2.27,2.64,4.06,4.72C415.11,250.18,426.62,202.57,438.3,154.26Z" />
    <path
        d="M222,0c10,1.33,20.13,2.36,30.12,4,29.32,4.93,57,14.55,82.56,29.9a17.21,17.21,0,0,1,4.72,3.58c2.59,3.27,2.53,6.9-.25,10-3.14,3.55-6.87,3.19-10.89,1.24-12.85-6.24-25.31-13.7-38.74-18.23C220,7.11,152.17,10.69,87.28,46.31c-25.89,14.21-46.92,34-60.2,60.91C7.16,147.59,14.55,193.08,46.37,228c26.26,28.81,59.48,45.49,96.7,54.86,10.78,2.71,21.86,4.33,32.87,6,7.47,1.14,10.87,3.87,10.21,9.44-.61,5.2-4.39,7.48-11.89,6.58-34.94-4.2-68-14.13-98.3-32.43-26-15.71-47.48-35.93-61.83-63.07A118,118,0,0,1,.84,166.78,15.25,15.25,0,0,0,0,164V143a11.35,11.35,0,0,0,.79-2.32C4,111.56,16.94,87,36.81,66,70.08,31,112,12.57,158.88,4.1,169.16,2.24,179.62,1.34,190,0Z" />
    <path
        d="M192.06,152.7a164.93,164.93,0,0,1-20.33,78.81c-2,3.65-4.51,6.19-9,5.7-6.11-.68-8.63-6.7-5.19-13a149.28,149.28,0,0,0,14.69-38.56c7.9-35.33,3.48-69.08-13-101.29-.53-1-1.09-2.06-1.62-3.1-2.94-5.63-2.07-10.13,2.41-12.51s8.71-.63,11.77,5A164.24,164.24,0,0,1,192.06,152.7Z" />
    <path
        d="M155,152.88a135.23,135.23,0,0,1-17.11,61.67c-3.54,6.33-10.35,7.28-14.14,2.1-2.72-3.73-1.43-7.21.53-10.71a106.83,106.83,0,0,0,13-39.56,108.78,108.78,0,0,0-11.85-65.24c-.54-1-1.12-2-1.63-3.09-2.27-4.71-1.24-9.08,2.66-11.3a7.66,7.66,0,0,1,11.26,3.78c4.67,10.8,9.61,21.6,12.81,32.86C153.23,132.88,153.62,143,155,152.88Z" />
    <path
        d="M118.05,152.59a90.13,90.13,0,0,1-12.31,45.2c-3.12,5.36-7.66,7-11.92,4.51s-5-6.86-2.07-12.19q20.76-37.58-.07-75.1c-2.92-5.28-2.08-9.66,2.18-12.15s8.63-.94,11.63,4.13A89.94,89.94,0,0,1,118.05,152.59Z" />
    <path
        d="M83.2,152.92a53.12,53.12,0,0,1-8.85,29.64c-3.16,4.85-7.74,6.22-11.8,3.66s-4.78-7.08-1.69-12.2q12.94-21.44,0-42.84c-3.12-5.15-2.58-9.66,1.41-12.28s8.79-1.3,12.14,3.86A53.09,53.09,0,0,1,83.2,152.92Z" />
    <path class="cls-1"
        d="M276.92,434.61c-3.35-.36-5.4-2.51-5.61-6.13-.19-3.29,3.1-6.46,6.5-6.27,3.74.2,5.73,2.55,6,6.14C284,431.68,280.76,434.62,276.92,434.61Z" />
    <path class="cls-1"
        d="M338.61,88c8.64,2.07,18,4.3,27.37,6.55,4,1,8.12,1.83,12.09,3,4.73,1.4,6.89,5,6,9.47a7.62,7.62,0,0,1-9.43,6q-20.19-4.47-40.19-9.7a7.45,7.45,0,0,1-5.24-9.45C330.45,89.67,333.43,87.67,338.61,88Z" />
</svg>